<mxfile host="app.diagrams.net" modified="2023-04-25T14:54:48.064Z" agent="Mozilla/5.0 (Windows NT 10.0; Win64; x64; rv:109.0) Gecko/20100101 Firefox/112.0" version="21.2.1" etag="9Y8pwTEVf7kCgbU8A77C" type="github">
  <diagram name="PÃ¡gina-1" id="x1Xw1xRCjLO0PJ9eacTO">
    <mxGraphModel>
      <root>
        <mxCell id="0" />
        <mxCell id="1" parent="0" />
      </root>
    </mxGraphModel>
  </diagram>
</mxfile>
